<svg xmlns="http://www.w3.org/2000/svg" width="18" height="15" viewBox="0 0 18 15">
  <path id="Shape_Copy" data-name="Shape Copy" d="M16.157,14.888,1.281.656a.363.363,0,0,1-.11-.38A.384.384,0,0,1,1.476.013L1.526,0a.407.407,0,0,1,.318.117l3.5,3.347A9.175,9.175,0,0,1,9,2.634c4.7,0,8.736,4.434,8.906,4.623a.369.369,0,0,1,0,.491,17.61,17.61,0,0,1-4.5,3.429l3.316,3.172a.368.368,0,0,1,0,.538.409.409,0,0,1-.562,0ZM.094,7.749a.369.369,0,0,1,0-.491A17.5,17.5,0,0,1,3.911,4.191L5.257,5.478A3.941,3.941,0,0,0,4.694,7.5a4.2,4.2,0,0,0,3.854,4.1c.151.011.3.023.453.023a4.408,4.408,0,0,0,2.117-.538l.795.76a9.043,9.043,0,0,1-2.446.5c-.155.014-.308.023-.465.023C4.3,12.371.264,7.938.094,7.749Zm7.353-.187L8.939,8.989A1.516,1.516,0,0,1,7.447,7.562Z" transform="translate(0 0)" fill="#7f92a6"/>
</svg>
